<?xml version="1.0" standalone="no"?>
<!DOCTYPE svg PUBLIC "-//W3C//DTD SVG 20010904//EN"
 "http://www.w3.org/TR/2001/REC-SVG-20010904/DTD/svg10.dtd">
<svg version="1.0" xmlns="http://www.w3.org/2000/svg"
 width="874.000000pt" height="874.000000pt" viewBox="0 0 874.000000 874.000000"
 preserveAspectRatio="xMidYMid meet">
<metadata>
Created by potrace 1.11, written by Peter Selinger 2001-2013
</metadata>
<g transform="translate(0.000000,874.000000) scale(0.100000,-0.100000)"
fill="#000000" stroke="none">
<path d="M666 7847 c-26 -45 -51 -89 -56 -97 -8 -12 -301 -520 -396 -685 -12
-22 -65 -114 -118 -205 l-95 -164 34 -23 c19 -13 36 -23 39 -23 4 0 119 -65
135 -76 2 -2 -16 -37 -39 -79 -23 -42 -40 -78 -38 -80 2 -2 113 -67 248 -145
135 -78 363 -210 507 -293 l262 -152 -19 -30 c-10 -16 -27 -46 -38 -65 -11
-19 -100 -175 -199 -346 -99 -170 -182 -317 -186 -325 -4 -7 -47 -82 -96 -166
l-88 -151 103 -59 c57 -32 104 -62 104 -67 0 -5 -18 -41 -41 -80 -38 -65 -39
-71 -23 -83 10 -7 22 -13 27 -13 5 0 21 -8 35 -19 15 -10 47 -29 72 -43 25
-14 86 -49 135 -78 50 -29 110 -64 135 -78 25 -13 70 -39 100 -57 30 -18 71
-42 90 -53 19 -10 102 -58 183 -106 82 -47 150 -86 152 -86 2 0 20 -11 39 -24
l34 -23 -45 -79 c-25 -43 -57 -99 -71 -124 -31 -54 -63 -109 -80 -135 -6 -11
-15 -27 -19 -35 -4 -8 -28 -51 -54 -95 -26 -44 -56 -96 -67 -115 -11 -19 -70
-123 -132 -230 -62 -107 -121 -210 -131 -228 -11 -18 -17 -37 -14 -42 3 -4 50
-33 105 -65 l101 -57 -19 -31 c-11 -18 -31 -53 -46 -78 l-26 -45 38 -21 c20
-11 183 -105 362 -208 179 -104 422 -244 540 -313 118 -68 234 -135 257 -148
l42 -24 49 88 c54 96 476 828 491 852 5 8 35 60 67 115 31 55 94 164 140 242
46 78 84 144 84 147 0 3 24 44 53 93 30 48 65 108 79 133 26 46 118 207 152
263 10 18 30 52 44 77 13 25 48 86 77 135 112 191 185 320 185 327 0 4 -47 34
-105 66 l-104 59 39 67 c22 38 40 74 40 81 0 11 -483 296 -923 543 -42 24 -79
47 -82 51 -2 5 84 161 191 347 108 186 206 357 219 379 12 22 60 105 107 185
46 80 87 153 90 162 5 13 -14 29 -92 73 -55 30 -101 59 -104 64 -3 4 13 38 35
75 23 37 39 72 36 79 -3 7 -27 23 -53 37 -27 13 -71 38 -99 56 -27 17 -57 34
-65 37 -8 4 -31 17 -50 28 -48 29 -676 392 -725 419 -22 12 -44 26 -50 30 -5
4 -30 19 -55 32 -42 23 -202 116 -785 453 -121 70 -238 137 -260 150 -22 12
-80 46 -130 75 -49 29 -113 65 -141 81 l-51 28 -47 -82z"/>
<path d="M6080 4693 c-30 -53 -66 -114 -79 -137 -13 -23 -35 -61 -49 -86 -14
-25 -98 -171 -187 -325 -90 -154 -173 -298 -185 -320 -12 -22 -52 -91 -88
-153 -62 -107 -66 -112 -86 -99 -12 8 -66 39 -121 71 -55 31 -107 61 -115 66
-8 5 -157 91 -330 190 -173 99 -322 185 -330 190 -8 5 -64 37 -124 72 -60 35
-127 73 -149 86 -22 13 -43 20 -48 15 -8 -8 -109 -174 -109 -179 0 -1 -64
-112 -141 -246 -78 -133 -154 -264 -168 -290 -33 -59 -111 -195 -131 -229 -8
-14 -52 -90 -98 -170 -46 -79 -88 -151 -93 -159 -5 -8 -54 -94 -109 -190 -55
-96 -104 -182 -110 -190 -5 -8 -25 -42 -43 -75 -19 -33 -76 -132 -127 -220
-192 -331 -290 -504 -290 -512 0 -5 17 -18 38 -29 20 -10 67 -36 103 -58 l66
-39 -38 -66 c-20 -36 -39 -72 -41 -79 -2 -7 23 -27 54 -45 31 -18 83 -47 115
-66 32 -19 72 -42 88 -51 17 -9 101 -58 188 -108 88 -51 160 -92 162 -92 2 0
32 -17 66 -38 35 -22 141 -83 234 -137 94 -54 186 -107 205 -118 125 -72 119
-70 127 -50 4 10 30 56 58 103 28 47 54 92 58 100 4 8 18 33 30 55 47 81 216
372 236 405 11 19 35 62 54 95 19 33 65 113 103 178 103 177 133 230 146 255
14 28 22 27 79 -6 37 -21 268 -156 357 -207 48 -28 131 -75 162 -93 50 -27
460 -266 550 -319 41 -24 83 -45 93 -46 15 -2 54 58 181 278 182 314 474 819
490 850 6 11 13 22 16 25 3 3 11 17 17 33 7 15 19 27 27 27 8 0 122 -62 253
-138 131 -76 294 -171 363 -211 69 -40 132 -76 140 -81 73 -44 153 -90 155
-90 1 0 42 -23 91 -51 49 -29 103 -59 119 -69 17 -9 46 -27 65 -38 19 -12 38
-22 42 -22 6 0 27 33 73 115 13 22 46 81 75 130 29 50 61 106 72 125 11 19 63
109 116 200 300 518 383 663 379 666 -1 1 -33 18 -72 39 -38 21 -77 44 -86 51
-8 8 -21 14 -27 14 -26 0 -21 25 18 91 22 38 39 73 36 78 -3 5 -43 30 -88 56
-46 26 -96 55 -113 65 -16 9 -75 43 -130 75 -55 32 -112 65 -127 74 -33 20
-232 134 -308 177 -30 17 -197 114 -370 214 -173 100 -330 191 -349 202 -19
11 -210 121 -425 246 -551 318 -540 312 -551 312 -5 0 -35 -44 -65 -97z"/>
</g>
</svg>
