<?xml version="1.0" encoding="UTF-8" standalone="no"?>
<svg
   xmlns:dc="http://purl.org/dc/elements/1.1/"
   xmlns:cc="http://creativecommons.org/ns#"
   xmlns:rdf="http://www.w3.org/1999/02/22-rdf-syntax-ns#"
   xmlns:svg="http://www.w3.org/2000/svg"
   xmlns="http://www.w3.org/2000/svg"
   xmlns:sodipodi="http://sodipodi.sourceforge.net/DTD/sodipodi-0.dtd"
   xmlns:inkscape="http://www.inkscape.org/namespaces/inkscape"
   sodipodi:docname="concept.svg"
   inkscape:version="1.0 (4035a4fb49, 2020-05-01)"
   id="svg8"
   version="1.1"
   viewBox="0 0 210 297"
   height="297mm"
   width="210mm">
  <defs
     id="defs2">
    <rect
       id="rect929"
       height="15.119048"
       width="60.098214"
       y="-23.434524"
       x="-233.21131" />
  </defs>
  <sodipodi:namedview
     inkscape:window-maximized="1"
     inkscape:window-y="-9"
     inkscape:window-x="-9"
     inkscape:window-height="1001"
     inkscape:window-width="1920"
     showgrid="false"
     inkscape:document-rotation="0"
     inkscape:current-layer="layer1"
     inkscape:document-units="mm"
     inkscape:cy="1950.3573"
     inkscape:cx="-187.34145"
     inkscape:zoom="0.49497475"
     inkscape:pageshadow="2"
     inkscape:pageopacity="0.0"
     borderopacity="1.0"
     bordercolor="#666666"
     pagecolor="#ffffff"
     id="base" />
  <metadata
     id="metadata5">
    <rdf:RDF>
      <cc:Work
         rdf:about="">
        <dc:format>image/svg+xml</dc:format>
        <dc:type
           rdf:resource="http://purl.org/dc/dcmitype/StillImage" />
        <dc:title></dc:title>
      </cc:Work>
    </rdf:RDF>
  </metadata>
  <g
     id="layer1"
     inkscape:groupmode="layer"
     inkscape:label="Layer 1">
    <rect
       inkscape:export-ydpi="120.95"
       inkscape:export-xdpi="120.95"
       y="289.59525"
       x="-78.356476"
       height="250"
       width="657.85333"
       id="rect1129"
       style="opacity:1;fill:#4b0061;fill-opacity:1;stroke:none;stroke-width:1.09691;stroke-miterlimit:4;stroke-dasharray:none;stroke-opacity:1" />
    <rect
       y="55.037804"
       x="-509.10324"
       height="250"
       width="250"
       id="rect889"
       style="opacity:1;fill:#4b0082;fill-opacity:1;stroke:none;stroke-width:0.676202;stroke-miterlimit:4;stroke-dasharray:none;stroke-opacity:1" />
    <path
       d="m -372.1059,169.43308 -12.99043,7.50032 -12.99042,7.4998 -12.99042,7.50032 7.50032,12.99042 12.99042,-7.50032 12.99042,-7.4998 7.4998,12.99042 7.49981,12.99042 12.99041,-7.50032 12.99043,-7.4998 7.50032,12.99042 12.99042,-7.50031 -7.50032,-12.99042 -7.4998,-12.98991 -12.99042,7.4998 -12.99042,7.4998 -7.4998,-12.99042 z"
       style="fill:#00ffff;fill-opacity:1;stroke:none;stroke-width:0.236953;stroke-miterlimit:4;stroke-dasharray:none;stroke-opacity:1"
       id="rect833" />
    <path
       d="m -428.1105,132.56163 -12.99042,7.50032 7.4998,12.99042 7.50032,12.99042 -12.99042,7.4998 -12.99043,7.4998 7.49981,12.99042 7.50031,12.99042 -12.99042,7.50032 7.4998,12.99042 12.99042,-7.50031 12.99042,-7.49981 -7.4998,-12.99042 -7.50031,-12.99042 12.99042,-7.4998 12.99042,-7.50032 -7.4998,-12.99042 -7.50032,-12.99042 z"
       style="fill:#00ffff;fill-opacity:1;stroke:none;stroke-width:0.236953;stroke-miterlimit:4;stroke-dasharray:none;stroke-opacity:1"
       id="rect853" />
    <ellipse
       ry="10.016369"
       rx="45.168152"
       cy="-17.575893"
       cx="-205.80803"
       id="path925"
       style="opacity:1;fill:#4b4b4b;fill-opacity:1;stroke:none;stroke-width:0.600001;stroke-miterlimit:4;stroke-dasharray:none;stroke-opacity:1" />
    <text
       style="fill:#ffffff;fill-opacity:1;stroke:none;font-family:sans-serif;font-style:normal;font-weight:normal;font-size:10.58333333px;line-height:1.25;letter-spacing:0px;word-spacing:0px;white-space:pre;shape-inside:url(#rect929);"
       id="text927"
       xml:space="preserve" />
    <text
       id="text935"
       y="-12.473215"
       x="-230.56548"
       style="font-style:normal;font-weight:normal;font-size:10.5833px;line-height:1.25;font-family:sans-serif;letter-spacing:0px;word-spacing:0px;fill:#000000;fill-opacity:1;stroke:none;stroke-width:0.264583"
       xml:space="preserve"><tspan
         style="fill:#ffffff;stroke-width:0.264583"
         y="-12.473215"
         x="-230.56548"
         id="tspan933"
         sodipodi:role="line">#4b4b4b</tspan></text>
    <rect
       inkscape:export-ydpi="120.95"
       inkscape:export-xdpi="120.95"
       style="opacity:1;fill:#4b0061;fill-opacity:1;stroke:none;stroke-width:0.676202;stroke-miterlimit:4;stroke-dasharray:none;stroke-opacity:1"
       id="rect939"
       width="250"
       height="250"
       x="319.27448"
       y="-287.95239" />
    <rect
       transform="rotate(-45)"
       y="-255.65833"
       x="-184.1499"
       height="30"
       width="30"
       id="rect941"
       style="opacity:1;fill:#ff0000;fill-opacity:1;stroke:none;stroke-width:0.534507;stroke-miterlimit:4;stroke-dasharray:none;stroke-opacity:1" />
    <rect
       style="opacity:1;fill:#ff0000;fill-opacity:1;stroke:none;stroke-width:0.534507;stroke-miterlimit:4;stroke-dasharray:none;stroke-opacity:1"
       id="rect945"
       width="30"
       height="30"
       x="-154.1499"
       y="-255.65833"
       transform="rotate(-45)" />
    <rect
       transform="rotate(-45)"
       y="-225.65833"
       x="-154.1499"
       height="30"
       width="30"
       id="rect947"
       style="opacity:1;fill:#ff0000;fill-opacity:1;stroke:none;stroke-width:0.534507;stroke-miterlimit:4;stroke-dasharray:none;stroke-opacity:1" />
    <rect
       style="opacity:1;fill:#ff0000;fill-opacity:1;stroke:none;stroke-width:0.534507;stroke-miterlimit:4;stroke-dasharray:none;stroke-opacity:1"
       id="rect949"
       width="30"
       height="30"
       x="-124.14991"
       y="-225.65833"
       transform="rotate(-45)" />
    <rect
       transform="rotate(-45)"
       y="-195.65833"
       x="-124.14991"
       height="30"
       width="30"
       id="rect951"
       style="opacity:1;fill:#ff0000;fill-opacity:1;stroke:none;stroke-width:0.534507;stroke-miterlimit:4;stroke-dasharray:none;stroke-opacity:1" />
    <path
       inkscape:export-ydpi="120.95"
       inkscape:export-xdpi="120.95"
       d="m 471.44766,-184.16581 -21.21318,-21.21318 -21.21318,-21.21317 -21.21317,21.21317 21.21317,21.21318 -21.21317,21.21317 21.21317,21.21318 -21.21317,21.21317 21.21317,21.213179 21.21318,-21.213179 21.21318,-21.21317 -21.21318,-21.21318 z"
       style="opacity:1;fill:#ee4433;fill-opacity:1;stroke:none;stroke-width:0.534506;stroke-miterlimit:4;stroke-dasharray:none;stroke-opacity:1"
       id="rect953" />
    <path
       inkscape:export-ydpi="120.95"
       inkscape:export-xdpi="120.95"
       d="m 515.62437,-162.95264 -21.21318,21.21318 -21.21317,21.21369 21.21317,21.213169 21.21318,-21.213169 21.21318,21.213169 21.21317,-21.213169 21.2137,21.213169 21.21317,-21.213169 -21.21317,-21.21369 -21.2137,-21.21318 -21.21317,21.21318 z"
       style="opacity:1;fill:#eed043;fill-opacity:1;stroke:none;stroke-width:0.534506;stroke-miterlimit:4;stroke-dasharray:none;stroke-opacity:1"
       id="rect969" />
    <rect
       inkscape:export-ydpi="120.95"
       inkscape:export-xdpi="120.95"
       y="-287.95239"
       x="319.27448"
       height="250"
       width="369.73676"
       id="rect985"
       style="opacity:1;fill:#4b0061;fill-opacity:1;stroke:none;stroke-width:0.822343;stroke-miterlimit:4;stroke-dasharray:none;stroke-opacity:1" />
    <path
       d="m 477.59486,-182.29492 -21.21318,-21.21318 -21.21318,-21.21317 -21.21317,21.21317 21.21317,21.21318 -21.21317,21.21317 21.21317,21.21318 -21.21317,21.21317 21.21317,21.213179 21.21318,-21.213179 21.21318,-21.21317 -21.21318,-21.21318 z"
       style="opacity:1;fill:#220b28;fill-opacity:1;stroke:none;stroke-width:0.534506;stroke-miterlimit:4;stroke-dasharray:none;stroke-opacity:1"
       id="path993"
       inkscape:export-xdpi="120.95"
       inkscape:export-ydpi="120.95" />
    <path
       inkscape:export-ydpi="120.95"
       inkscape:export-xdpi="120.95"
       id="path987"
       style="opacity:1;fill:#ee4433;fill-opacity:1;stroke:none;stroke-width:0.534506;stroke-miterlimit:4;stroke-dasharray:none;stroke-opacity:1"
       d="m 471.44766,-184.16581 -21.21318,-21.21318 -21.21318,-21.21317 -21.21317,21.21317 21.21317,21.21318 -21.21317,21.21317 21.21317,21.21318 -21.21317,21.21317 21.21317,21.213179 21.21318,-21.213179 21.21318,-21.21317 -21.21318,-21.21318 z" />
    <path
       d="m 521.77157,-161.08175 -21.21317,21.21318 -21.21318,21.21369 21.21318,21.213169 21.21317,-21.213169 21.21318,21.213169 21.21317,-21.213169 21.2137,21.213169 21.21317,-21.213169 -21.21317,-21.21369 -21.2137,-21.21318 -21.21317,21.21318 z"
       style="opacity:1;fill:#22002b;fill-opacity:1;stroke:none;stroke-width:0.534506;stroke-miterlimit:4;stroke-dasharray:none;stroke-opacity:1"
       id="path995"
       inkscape:export-xdpi="120.95"
       inkscape:export-ydpi="120.95" />
    <path
       inkscape:export-ydpi="120.95"
       inkscape:export-xdpi="120.95"
       id="path989"
       style="opacity:1;fill:#eed043;fill-opacity:1;stroke:none;stroke-width:0.534506;stroke-miterlimit:4;stroke-dasharray:none;stroke-opacity:1"
       d="m 515.62437,-162.95264 -21.21318,21.21318 -21.21317,21.21369 21.21317,21.213169 21.21318,-21.213169 21.21318,21.213169 21.21317,-21.213169 21.2137,21.213169 21.21317,-21.213169 -21.21317,-21.21369 -21.2137,-21.21318 -21.21317,21.21318 z" />
    <rect
       y="24.569078"
       x="314.62146"
       height="250"
       width="250"
       id="rect997"
       style="opacity:1;fill:#4b0061;fill-opacity:1;stroke:none;stroke-width:0.676202;stroke-miterlimit:4;stroke-dasharray:none;stroke-opacity:1"
       inkscape:export-xdpi="120.95"
       inkscape:export-ydpi="120.95" />
    <path
       id="path999"
       style="opacity:1;fill:#ee4433;fill-opacity:1;stroke:none;stroke-width:0.534506;stroke-miterlimit:4;stroke-dasharray:none;stroke-opacity:1"
       d="m 466.79463,128.35565 -21.21319,-21.21318 -21.21317,-21.213172 -21.21318,21.213172 21.21318,21.21318 -21.21318,21.21317 21.21318,21.21318 -21.21318,21.21317 21.21318,21.21318 21.21317,-21.21318 21.21319,-21.21317 -21.21319,-21.21318 z"
       inkscape:export-xdpi="120.95"
       inkscape:export-ydpi="120.95" />
    <path
       id="path1001"
       style="opacity:1;fill:#eed043;fill-opacity:1;stroke:none;stroke-width:0.534506;stroke-miterlimit:4;stroke-dasharray:none;stroke-opacity:1"
       d="m 510.97133,149.56882 -21.21317,21.21318 -21.21318,21.21369 21.21318,21.21317 21.21317,-21.21317 21.21318,21.21317 21.21317,-21.21317 21.2137,21.21317 21.21317,-21.21317 -21.21317,-21.21369 -21.2137,-21.21318 -21.21317,21.21318 z"
       inkscape:export-xdpi="120.95"
       inkscape:export-ydpi="120.95" />
    <rect
       style="opacity:1;fill:#4b0061;fill-opacity:1;stroke:none;stroke-width:0.822343;stroke-miterlimit:4;stroke-dasharray:none;stroke-opacity:1"
       id="rect1003"
       width="369.73676"
       height="250"
       x="675.96985"
       y="434.026"
       inkscape:export-xdpi="120.95"
       inkscape:export-ydpi="120.95" />
    <path
       d="m 466.79463,128.35565 -21.21319,-21.21318 -21.21317,-21.213172 -21.21318,21.213172 21.21318,21.21318 -21.21318,21.21317 21.21318,21.21318 -21.21318,21.21317 21.21318,21.21318 21.21317,-21.21318 21.21319,-21.21317 -21.21319,-21.21318 z"
       style="opacity:1;fill:#ee4433;fill-opacity:1;stroke:none;stroke-width:0.534506;stroke-miterlimit:4;stroke-dasharray:none;stroke-opacity:1"
       id="path1007"
       inkscape:export-xdpi="120.95"
       inkscape:export-ydpi="120.95" />
    <path
       d="m 510.97133,149.56882 -21.21317,21.21318 -21.21318,21.21369 21.21318,21.21317 21.21317,-21.21317 21.21318,21.21317 21.21317,-21.21317 21.2137,21.21317 21.21317,-21.21317 -21.21317,-21.21369 -21.2137,-21.21318 -21.21317,21.21318 z"
       style="opacity:1;fill:#eed043;fill-opacity:1;stroke:none;stroke-width:0.534506;stroke-miterlimit:4;stroke-dasharray:none;stroke-opacity:1"
       id="path1011"
       inkscape:export-xdpi="120.95"
       inkscape:export-ydpi="120.95" />
    <path
       transform="scale(0.26458333)"
       d="M 1620.3398 341.19922 L 1555.1641 406.37695 L 1635.3398 486.55273 L 1555.1641 566.72852 L 1635.3398 646.9043 L 1555.1641 727.08008 L 1618.9102 790.82812 L 1684.0879 725.65039 L 1764.2637 645.47461 L 1684.0879 565.29883 L 1764.2637 485.12305 L 1684.0879 404.94727 L 1620.3398 341.19922 z "
       style="opacity:1;fill:#220b28;fill-opacity:1;stroke:none;stroke-width:2.02018;stroke-miterlimit:4;stroke-dasharray:none;stroke-opacity:1"
       id="path1017" />
    <path
       transform="scale(0.26458333)"
       d="M 1947.6602 581.72656 L 1882.4824 646.9043 L 1802.3066 727.08203 L 1866.0547 790.82812 L 1931.2305 725.65234 L 1947.6602 742.08203 L 1962.6582 727.08203 L 2026.4062 790.82812 L 2091.582 725.65234 L 2108.0117 742.08008 L 2123.0098 727.08203 L 2186.7578 790.83008 L 2251.9355 725.65234 L 2171.7598 645.47461 L 2108.0117 581.72656 L 2042.834 646.9043 L 2026.4062 630.47656 L 2011.4062 645.47461 L 1947.6602 581.72656 z "
       style="opacity:1;fill:#eed043;fill-opacity:1;stroke:none;stroke-width:2.02018;stroke-miterlimit:4;stroke-dasharray:none;stroke-opacity:1"
       id="path1020" />
    <path
       inkscape:export-ydpi="120.95"
       inkscape:export-xdpi="120.95"
       id="path1025"
       style="opacity:1;fill:#eed043;fill-opacity:1;stroke:none;stroke-width:0.534506;stroke-miterlimit:4;stroke-dasharray:none;stroke-opacity:1"
       d="m 510.97151,149.56895 -21.21318,21.21319 -21.21317,21.21317 21.21317,21.21318 21.21318,-21.21318 21.21317,21.21318 21.21318,-21.21318 21.21317,21.21318 21.21318,-21.21318 -21.21318,-21.21317 -21.21317,-21.21319 -21.21318,21.21319 z" />
    <path
       id="path1027"
       style="opacity:1;fill:#220b28;fill-opacity:1;stroke:none;stroke-width:0.534506;stroke-miterlimit:4;stroke-dasharray:none;stroke-opacity:1"
       d="m 472.89149,187.64868 17.24494,17.24441 21.21317,-21.21316 21.21318,21.21316 21.21318,-21.21316 21.21317,21.21316 L 591.8558,188.02693 574.61086,170.782 553.39769,149.56882 532.18451,170.782 510.97134,149.56882 489.75816,170.782 Z" />
    <rect
       style="opacity:1;fill:#4b0061;fill-opacity:1;stroke:none;stroke-width:0.822343;stroke-miterlimit:4;stroke-dasharray:none;stroke-opacity:1"
       id="rect1051"
       width="369.73676"
       height="250"
       x="-79.868378"
       y="23.5"
       inkscape:export-xdpi="120.95"
       inkscape:export-ydpi="120.95" />
    <g
       id="g1117">
      <path
         inkscape:export-ydpi="120.95"
         inkscape:export-xdpi="120.95"
         d="M 15.643649,100.02508 -5.5695308,78.811898 -26.782711,57.598732 l -21.21317,21.213166 21.21317,21.213182 -21.21317,21.21317 21.21317,21.21318 -21.21317,21.21317 21.21317,21.21318 L -5.5695308,163.6646 15.643649,142.45143 -5.5695308,121.23825 Z"
         style="opacity:1;fill:#ee4433;fill-opacity:1;stroke:none;stroke-width:0.534506;stroke-miterlimit:4;stroke-dasharray:none;stroke-opacity:1"
         id="path1047" />
      <path
         d="M 21.790849,101.89597 0.57766917,80.682788 -20.635511,59.469622 l -21.21317,21.213166 21.21317,21.213182 -21.21317,21.21317 21.21317,21.21318 -21.21317,21.21317 21.21317,21.21318 L 0.57766917,165.53549 21.790849,144.32232 0.57766917,123.10914 Z"
         style="opacity:1;fill:#220b28;fill-opacity:1;stroke:none;stroke-width:0.534506;stroke-miterlimit:4;stroke-dasharray:none;stroke-opacity:1"
         id="path1053"
         inkscape:export-xdpi="120.95"
         inkscape:export-ydpi="120.95" />
      <path
         inkscape:export-ydpi="120.95"
         inkscape:export-xdpi="120.95"
         id="path1055"
         style="opacity:1;fill:#ee4433;fill-opacity:1;stroke:none;stroke-width:0.534506;stroke-miterlimit:4;stroke-dasharray:none;stroke-opacity:1"
         d="M 15.643649,100.02508 -5.5695308,78.811898 -26.782711,57.598732 l -21.21317,21.213166 21.21317,21.213182 -21.21317,21.21317 21.21317,21.21318 -21.21317,21.21317 21.21317,21.21318 L -5.5695308,163.6646 15.643649,142.45143 -5.5695308,121.23825 Z" />
      <path
         d="M 30.059812,152.55297 8.8466392,173.76615 -12.366541,194.97984 8.8466392,216.19301 30.059812,194.97984 51.27299,216.19301 72.48616,194.97984 93.69986,216.19301 114.91303,194.97984 93.69986,173.76615 72.48616,152.55297 51.27299,173.76615 Z"
         style="opacity:1;fill:#22002b;fill-opacity:1;stroke:none;stroke-width:0.534506;stroke-miterlimit:4;stroke-dasharray:none;stroke-opacity:1"
         id="path1057"
         inkscape:export-xdpi="120.95"
         inkscape:export-ydpi="120.95" />
      <path
         inkscape:export-ydpi="120.95"
         inkscape:export-xdpi="120.95"
         id="path1059"
         style="opacity:1;fill:#eed043;fill-opacity:1;stroke:none;stroke-width:0.534506;stroke-miterlimit:4;stroke-dasharray:none;stroke-opacity:1"
         d="M 23.912609,150.68208 2.6994392,171.89526 -18.513741,193.10895 2.6994392,214.32212 23.912609,193.10895 45.12579,214.32212 66.33896,193.10895 87.55266,214.32212 108.76583,193.10895 87.55266,171.89526 66.33896,150.68208 45.12579,171.89526 Z" />
      <path
         id="path1065"
         style="opacity:1;fill:#ee4433;fill-opacity:1;stroke:none;stroke-width:0.534506;stroke-miterlimit:4;stroke-dasharray:none;stroke-opacity:1"
         d="M 15.643649,100.02508 -5.5695308,78.811898 -26.782711,57.598732 l -21.21317,21.213166 21.21317,21.213182 -21.21317,21.21317 21.21317,21.21318 -21.21317,21.21317 21.21317,21.21318 L -5.5695308,163.6646 15.643649,142.45143 -5.5695308,121.23825 Z"
         inkscape:export-xdpi="120.95"
         inkscape:export-ydpi="120.95" />
      <path
         inkscape:export-ydpi="120.95"
         inkscape:export-xdpi="120.95"
         id="path1071"
         style="opacity:1;fill:#220b28;fill-opacity:1;stroke:none;stroke-width:0.534506;stroke-miterlimit:4;stroke-dasharray:none;stroke-opacity:1"
         d="M 21.790849,101.89597 0.57766917,80.682788 -20.635511,59.469622 l -21.21317,21.213166 21.21317,21.213182 -21.21317,21.21317 21.21317,21.21318 -21.21317,21.21317 21.21317,21.21318 L 0.57766917,165.53549 21.790849,144.32232 0.57766917,123.10914 Z" />
      <path
         d="M 15.643649,100.02508 -5.5695308,78.811898 -26.782711,57.598732 l -21.21317,21.213166 21.21317,21.213182 -21.21317,21.21317 21.21317,21.21318 -21.21317,21.21317 21.21317,21.21318 L -5.5695308,163.6646 15.643649,142.45143 -5.5695308,121.23825 Z"
         style="opacity:1;fill:#ee4433;fill-opacity:1;stroke:none;stroke-width:0.534506;stroke-miterlimit:4;stroke-dasharray:none;stroke-opacity:1"
         id="path1073"
         inkscape:export-xdpi="120.95"
         inkscape:export-ydpi="120.95" />
      <path
         inkscape:export-ydpi="120.95"
         inkscape:export-xdpi="120.95"
         id="path1075"
         style="opacity:1;fill:#22002b;fill-opacity:1;stroke:none;stroke-width:0.534506;stroke-miterlimit:4;stroke-dasharray:none;stroke-opacity:1"
         d="M 30.059812,152.55297 8.8466392,173.76615 -12.366541,194.97984 8.8466392,216.19301 30.059812,194.97984 51.27299,216.19301 72.48616,194.97984 93.69986,216.19301 114.91303,194.97984 93.69986,173.76615 72.48616,152.55297 51.27299,173.76615 Z" />
      <path
         d="M 23.912609,150.68208 2.6994392,171.89526 -18.513741,193.10895 2.6994392,214.32212 23.912609,193.10895 45.12579,214.32212 66.33896,193.10895 87.55266,214.32212 108.76583,193.10895 87.55266,171.89526 66.33896,150.68208 45.12579,171.89526 Z"
         style="opacity:1;fill:#eed043;fill-opacity:1;stroke:none;stroke-width:0.534506;stroke-miterlimit:4;stroke-dasharray:none;stroke-opacity:1"
         id="path1077"
         inkscape:export-xdpi="120.95"
         inkscape:export-ydpi="120.95" />
    </g>
    <g
       id="g1121">
      <path
         inkscape:export-ydpi="120.95"
         inkscape:export-xdpi="120.95"
         id="path1103"
         style="opacity:1;fill:#ee4433;fill-opacity:1;stroke:none;stroke-width:0.534506;stroke-miterlimit:4;stroke-dasharray:none;stroke-opacity:1"
         d="M 185.09253,100.02508 163.87935,78.811898 142.66617,57.598732 121.453,78.811898 l 21.21317,21.213182 -21.21317,21.21317 21.21317,21.21318 -21.21317,21.21317 21.21317,21.21318 21.21318,-21.21318 21.21318,-21.21317 -21.21318,-21.21318 z" />
      <path
         inkscape:export-ydpi="120.95"
         inkscape:export-xdpi="120.95"
         id="path1105"
         style="opacity:1;fill:#eed043;fill-opacity:1;stroke:none;stroke-width:0.534506;stroke-miterlimit:4;stroke-dasharray:none;stroke-opacity:1"
         d="m 193.36149,150.68208 -21.21317,21.21318 -21.21318,21.21369 21.21318,21.21317 21.21317,-21.21317 21.21318,21.21317 21.21317,-21.21317 21.2137,21.21317 21.21317,-21.21317 -21.21317,-21.21369 -21.2137,-21.21318 -21.21317,21.21318 z" />
    </g>
    <g
       inkscape:export-ydpi="120.95"
       inkscape:export-xdpi="120.95"
       style="fill:#220b28"
       id="g1135"
       transform="rotate(-15,1146.0414,618.32598)">
      <path
         inkscape:export-ydpi="120.95"
         inkscape:export-xdpi="120.95"
         id="path1131"
         style="opacity:1;fill:#220b28;fill-opacity:1;stroke:none;stroke-width:0.534506;stroke-miterlimit:4;stroke-dasharray:none;stroke-opacity:1"
         d="M 185.09253,100.02508 163.87935,78.811898 142.66617,57.598732 121.453,78.811898 l 21.21317,21.213182 -21.21317,21.21317 21.21317,21.21318 -21.21317,21.21317 21.21317,21.21318 21.21318,-21.21318 21.21318,-21.21317 -21.21318,-21.21318 z" />
      <path
         inkscape:export-ydpi="120.95"
         inkscape:export-xdpi="120.95"
         id="path1133"
         style="opacity:1;fill:#220b28;fill-opacity:1;stroke:none;stroke-width:0.534506;stroke-miterlimit:4;stroke-dasharray:none;stroke-opacity:1"
         d="m 193.36149,150.68208 -21.21317,21.21318 -21.21318,21.21369 21.21318,21.21317 21.21317,-21.21317 21.21318,21.21317 21.21317,-21.21317 21.2137,21.21317 21.21317,-21.21317 -21.21317,-21.21369 -21.2137,-21.21318 -21.21317,21.21318 z" />
    </g>
    <g
       inkscape:export-ydpi="120.95"
       inkscape:export-xdpi="120.95"
       transform="rotate(-15,1122.6117,625.46415)"
       id="g1127">
      <path
         d="M 185.09253,100.02508 163.87935,78.811898 142.66617,57.598732 121.453,78.811898 l 21.21317,21.213182 -21.21317,21.21317 21.21317,21.21318 -21.21317,21.21317 21.21317,21.21318 21.21318,-21.21318 21.21318,-21.21317 -21.21318,-21.21318 z"
         style="opacity:1;fill:#ee4433;fill-opacity:1;stroke:none;stroke-width:0.534506;stroke-miterlimit:4;stroke-dasharray:none;stroke-opacity:1"
         id="path1123"
         inkscape:export-xdpi="120.95"
         inkscape:export-ydpi="120.95" />
      <path
         d="m 193.36149,150.68208 -21.21317,21.21318 -21.21318,21.21369 21.21318,21.21317 21.21317,-21.21317 21.21318,21.21317 21.21317,-21.21317 21.2137,21.21317 21.21317,-21.21317 -21.21317,-21.21369 -21.2137,-21.21318 -21.21317,21.21318 z"
         style="opacity:1;fill:#eed043;fill-opacity:1;stroke:none;stroke-width:0.534506;stroke-miterlimit:4;stroke-dasharray:none;stroke-opacity:1"
         id="path1125"
         inkscape:export-xdpi="120.95"
         inkscape:export-ydpi="120.95" />
    </g>
    <g
       inkscape:export-ydpi="120.95"
       inkscape:export-xdpi="120.95"
       id="g1147"
       transform="rotate(-15,1251.4356,-353.05061)">
      <path
         inkscape:export-ydpi="120.95"
         inkscape:export-xdpi="120.95"
         id="path1143"
         style="opacity:1;fill:#ee4433;fill-opacity:1;stroke:none;stroke-width:0.534506;stroke-miterlimit:4;stroke-dasharray:none;stroke-opacity:1"
         d="M 185.09253,100.02508 163.87935,78.811898 142.66617,57.598732 121.453,78.811898 l 21.21317,21.213182 -21.21317,21.21317 21.21317,21.21318 -21.21317,21.21317 21.21317,21.21318 21.21318,-21.21318 21.21318,-21.21317 -21.21318,-21.21318 z" />
      <path
         inkscape:export-ydpi="120.95"
         inkscape:export-xdpi="120.95"
         id="path1145"
         style="opacity:1;fill:#eed043;fill-opacity:1;stroke:none;stroke-width:0.534506;stroke-miterlimit:4;stroke-dasharray:none;stroke-opacity:1"
         d="m 193.36149,150.68208 -21.21317,21.21318 -21.21318,21.21369 21.21318,21.21317 21.21317,-21.21317 21.21318,21.21317 21.21317,-21.21317 21.2137,21.21317 21.21317,-21.21317 -21.21317,-21.21369 -21.2137,-21.21318 -21.21317,21.21318 z" />
    </g>
    <rect
       style="opacity:1;fill:#4b0061;fill-opacity:1;stroke:none;stroke-width:1.09691;stroke-miterlimit:4;stroke-dasharray:none;stroke-opacity:1"
       id="rect1149"
       width="657.85333"
       height="250"
       x="-78.356476"
       y="538.53687"
       inkscape:export-xdpi="120.95"
       inkscape:export-ydpi="120.95" />
    <g
       transform="rotate(15,-1791.1268,55.18642)"
       id="g1155"
       style="fill:#220b28"
       inkscape:export-xdpi="120.95"
       inkscape:export-ydpi="120.95">
      <path
         d="M 185.09253,100.02508 163.87935,78.811898 142.66617,57.598732 121.453,78.811898 l 21.21317,21.213182 -21.21317,21.21317 21.21317,21.21318 -21.21317,21.21317 21.21317,21.21318 21.21318,-21.21318 21.21318,-21.21317 -21.21318,-21.21318 z"
         style="opacity:1;fill:#220b28;fill-opacity:1;stroke:none;stroke-width:0.534506;stroke-miterlimit:4;stroke-dasharray:none;stroke-opacity:1"
         id="path1151"
         inkscape:export-xdpi="120.95"
         inkscape:export-ydpi="120.95" />
      <path
         d="m 193.36149,150.68208 -21.21317,21.21318 -21.21318,21.21369 21.21318,21.21317 21.21317,-21.21317 21.21318,21.21317 21.21317,-21.21317 21.2137,21.21317 21.21317,-21.21317 -21.21317,-21.21369 -21.2137,-21.21318 -21.21317,21.21318 z"
         style="opacity:1;fill:#220b28;fill-opacity:1;stroke:none;stroke-width:0.534506;stroke-miterlimit:4;stroke-dasharray:none;stroke-opacity:1"
         id="path1153"
         inkscape:export-xdpi="120.95"
         inkscape:export-ydpi="120.95" />
    </g>
    <g
       id="g1161"
       transform="rotate(15,-1766.6479,54.35553)"
       inkscape:export-xdpi="120.95"
       inkscape:export-ydpi="120.95">
      <path
         inkscape:export-ydpi="120.95"
         inkscape:export-xdpi="120.95"
         id="path1157"
         style="opacity:1;fill:#ee4433;fill-opacity:1;stroke:none;stroke-width:0.534506;stroke-miterlimit:4;stroke-dasharray:none;stroke-opacity:1"
         d="M 185.09253,100.02508 163.87935,78.811898 142.66617,57.598732 121.453,78.811898 l 21.21317,21.213182 -21.21317,21.21317 21.21317,21.21318 -21.21317,21.21317 21.21317,21.21318 21.21318,-21.21318 21.21318,-21.21317 -21.21318,-21.21318 z" />
      <path
         inkscape:export-ydpi="120.95"
         inkscape:export-xdpi="120.95"
         id="path1159"
         style="opacity:1;fill:#eed043;fill-opacity:1;stroke:none;stroke-width:0.534506;stroke-miterlimit:4;stroke-dasharray:none;stroke-opacity:1"
         d="m 193.36149,150.68208 -21.21317,21.21318 -21.21318,21.21369 21.21318,21.21317 21.21317,-21.21317 21.21318,21.21317 21.21317,-21.21317 21.2137,21.21317 21.21317,-21.21317 -21.21317,-21.21369 -21.2137,-21.21318 -21.21317,21.21318 z" />
    </g>
    <g
       transform="rotate(15,-1639.6715,1026.8062)"
       id="g1167"
       inkscape:export-xdpi="120.95"
       inkscape:export-ydpi="120.95">
      <path
         d="M 185.09253,100.02508 163.87935,78.811898 142.66617,57.598732 121.453,78.811898 l 21.21317,21.213182 -21.21317,21.21317 21.21317,21.21318 -21.21317,21.21317 21.21317,21.21318 21.21318,-21.21318 21.21318,-21.21317 -21.21318,-21.21318 z"
         style="opacity:1;fill:#ee4433;fill-opacity:1;stroke:none;stroke-width:0.534506;stroke-miterlimit:4;stroke-dasharray:none;stroke-opacity:1"
         id="path1163"
         inkscape:export-xdpi="120.95"
         inkscape:export-ydpi="120.95" />
      <path
         d="m 193.36149,150.68208 -21.21317,21.21318 -21.21318,21.21369 21.21318,21.21317 21.21317,-21.21317 21.21318,21.21317 21.21317,-21.21317 21.2137,21.21317 21.21317,-21.21317 -21.21317,-21.21369 -21.2137,-21.21318 -21.21317,21.21318 z"
         style="opacity:1;fill:#eed043;fill-opacity:1;stroke:none;stroke-width:0.534506;stroke-miterlimit:4;stroke-dasharray:none;stroke-opacity:1"
         id="path1165"
         inkscape:export-xdpi="120.95"
         inkscape:export-ydpi="120.95" />
    </g>
    <g
       transform="rotate(-15,2074.9332,-2190.6986)"
       id="g1183"
       style="fill:#220b28"
       inkscape:export-xdpi="120.95"
       inkscape:export-ydpi="120.95">
      <path
         d="M 185.09253,100.02508 163.87935,78.811898 142.66617,57.598732 121.453,78.811898 l 21.21317,21.213182 -21.21317,21.21317 21.21317,21.21318 -21.21317,21.21317 21.21317,21.21318 21.21318,-21.21318 21.21318,-21.21317 -21.21318,-21.21318 z"
         style="opacity:1;fill:#220b28;fill-opacity:1;stroke:none;stroke-width:0.534506;stroke-miterlimit:4;stroke-dasharray:none;stroke-opacity:1"
         id="path1179"
         inkscape:export-xdpi="120.95"
         inkscape:export-ydpi="120.95" />
      <path
         d="m 193.36149,150.68208 -21.21317,21.21318 -21.21318,21.21369 21.21318,21.21317 21.21317,-21.21317 21.21318,21.21317 21.21317,-21.21317 21.2137,21.21317 21.21317,-21.21317 -21.21317,-21.21369 -21.2137,-21.21318 -21.21317,21.21318 z"
         style="opacity:1;fill:#220b28;fill-opacity:1;stroke:none;stroke-width:0.534506;stroke-miterlimit:4;stroke-dasharray:none;stroke-opacity:1"
         id="path1181"
         inkscape:export-xdpi="120.95"
         inkscape:export-ydpi="120.95" />
    </g>
    <path
       d="m 839.72435,505.27651 -25.98073,-14.99998 -25.98074,-14.99998 -14.99997,25.98072 25.98072,14.99999 -14.99997,25.98072 25.98072,14.99999 -14.99998,25.98072 25.98073,14.99998 14.99998,-25.98073 14.99999,-25.98072 -25.98074,-14.99999 z"
       style="fill:#ee4433;fill-opacity:1;stroke:none;stroke-width:0.534506;stroke-miterlimit:4;stroke-dasharray:none;stroke-opacity:1"
       id="path1185"
       inkscape:export-xdpi="120.95"
       inkscape:export-ydpi="120.95" />
    <path
       d="m 860.82255,552.06725 -14.99998,25.98073 -14.99985,25.98123 25.98073,14.99997 14.99998,-25.98072 25.98073,14.99997 14.99998,-25.98072 25.98123,14.99984 14.99998,-25.98072 -25.98086,-15.00048 -25.98124,-14.99985 -14.99997,25.98073 z"
       style="fill:#eed043;fill-opacity:1;stroke:none;stroke-width:0.534506;stroke-miterlimit:4;stroke-dasharray:none;stroke-opacity:1"
       id="path1187"
       inkscape:export-xdpi="120.95"
       inkscape:export-ydpi="120.95" />
    <ellipse
       ry="13.229166"
       rx="14.741072"
       cy="614.2113"
       cx="-38.931545"
       id="path1835"
       style="opacity:1;fill:#62007d;fill-opacity:1;stroke:none;stroke-width:0.600001;stroke-miterlimit:4;stroke-dasharray:none;stroke-opacity:1" />
    <ellipse
       style="opacity:1;fill:#340042;fill-opacity:1;stroke:none;stroke-width:0.600001;stroke-miterlimit:4;stroke-dasharray:none;stroke-opacity:1"
       id="ellipse1839"
       cx="-38.931545"
       cy="656.54462"
       rx="14.741072"
       ry="13.229166" />
  </g>
</svg>
